<svg version="1.0" preserveAspectRatio="xMidYMid meet" viewBox="0 54.59999868960001 367.5 215.999994816" zoomAndPan="magnify" xmlns:xlink="http://www.w3.org/1999/xlink" xmlns="http://www.w3.org/2000/svg" style="max-height: 500px" width="367.5" height="215.999994816"><defs><g/></defs><path stroke-miterlimit="4" stroke-opacity="1" stroke-width="2" stroke="#000000" d="M 0.000365161 1.001386 L 420.588138 0.999077" stroke-linejoin="miter" fill="none" transform="matrix(0.749992, -0.00342301, 0.00342301, 0.749992, 27.980673, 219.815376)" stroke-linecap="butt"/><g fill-opacity="1" fill="#000000"><g transform="translate(217.974418, 251.4765)"><g><path d="M 7.1875 -6.34375 C 7.1875 -7.226562 6.820312 -7.671875 6.09375 -7.671875 C 6.03125 -7.671875 5.96875 -7.671875 5.90625 -7.671875 C 5.625 -7.640625 5.457031 -7.691406 5.40625 -7.828125 C 5.363281 -7.960938 5.4375 -8.050781 5.625 -8.09375 C 5.8125 -8.144531 6.015625 -8.15625 6.234375 -8.125 C 7.046875 -8 7.597656 -7.617188 7.890625 -6.984375 C 8.085938 -6.597656 8.1875 -6.21875 8.1875 -5.84375 C 8.1875 -4.507812 7.695312 -3.195312 6.71875 -1.90625 C 5.738281 -0.601562 4.472656 0.046875 2.921875 0.046875 C 2.347656 0.046875 1.882812 -0.113281 1.53125 -0.4375 C 1.175781 -0.769531 1 -1.207031 1 -1.75 C 1 -2.394531 1.367188 -3.5 2.109375 -5.0625 C 0.835938 -2.644531 0.015625 -1.257812 -0.359375 -0.90625 C -0.515625 -0.769531 -0.59375 -0.816406 -0.59375 -1.046875 C -0.59375 -1.097656 -0.578125 -1.15625 -0.546875 -1.21875 C -0.00390625 -1.925781 1.078125 -3.863281 2.703125 -7.03125 C 4.328125 -10.195312 5.46875 -12.269531 6.125 -13.25 C 6.644531 -14.007812 7.15625 -14.390625 7.65625 -14.390625 C 7.65625 -14.390625 7.664062 -14.390625 7.6875 -14.390625 L 7.796875 -14.390625 C 7.804688 -14.390625 7.941406 -14.363281 8.203125 -14.3125 C 8.460938 -14.269531 8.65625 -14.265625 8.78125 -14.296875 C 8.257812 -13.753906 7.453125 -12.671875 6.359375 -11.046875 C 3.617188 -6.992188 2.25 -3.960938 2.25 -1.953125 C 2.25 -1.128906 2.515625 -0.664062 3.046875 -0.5625 C 3.085938 -0.539062 3.140625 -0.53125 3.203125 -0.53125 C 3.679688 -0.53125 4.28125 -0.960938 5 -1.828125 C 5.726562 -2.691406 6.328125 -3.675781 6.796875 -4.78125 C 7.054688 -5.351562 7.1875 -5.875 7.1875 -6.34375 Z M 7.1875 -6.34375"/></g></g></g><g fill-opacity="1" fill="#000000"><g transform="translate(226.011982, 251.4765)"><g/></g></g><g fill-opacity="1" fill="#000000"><g transform="translate(232.045992, 251.4765)"><g><path d="M -1.890625 7.359375 C -2.578125 7.359375 -3.101562 7.210938 -3.46875 6.921875 C -3.84375 6.640625 -4.03125 6.296875 -4.03125 5.890625 C -4.03125 5.484375 -3.914062 5.023438 -3.6875 4.515625 C -3.28125 3.722656 -2.550781 3.085938 -1.5 2.609375 C -0.707031 2.234375 0.335938 1.882812 1.640625 1.5625 C 2.953125 1.25 3.789062 1.039062 4.15625 0.9375 C 4.71875 -0.0390625 5.390625 -1.789062 6.171875 -4.3125 C 5.265625 -2.726562 4.507812 -1.613281 3.90625 -0.96875 C 3.300781 -0.332031 2.6875 -0.015625 2.0625 -0.015625 C 1.226562 -0.015625 0.738281 -0.367188 0.59375 -1.078125 C 0.53125 -1.179688 0.515625 -1.34375 0.546875 -1.5625 C 0.578125 -1.78125 0.597656 -1.9375 0.609375 -2.03125 C 0.617188 -2.125 0.671875 -2.273438 0.765625 -2.484375 C 0.859375 -2.691406 0.921875 -2.84375 0.953125 -2.9375 C 1.117188 -3.289062 1.265625 -3.570312 1.390625 -3.78125 C 1.140625 -3.78125 1.070312 -3.898438 1.1875 -4.140625 L 1.59375 -4.96875 C 2.125 -5.96875 2.5625 -6.820312 2.90625 -7.53125 C 3.0625 -7.851562 3.363281 -8.015625 3.8125 -8.015625 L 5.234375 -8.015625 C 5.203125 -7.984375 5.125 -7.921875 5 -7.828125 C 4.71875 -7.640625 4.507812 -7.421875 4.375 -7.171875 C 3.8125 -6.210938 3.113281 -4.835938 2.28125 -3.046875 C 1.9375 -2.316406 1.765625 -1.78125 1.765625 -1.4375 C 1.765625 -1.101562 1.820312 -0.863281 1.9375 -0.71875 C 2.050781 -0.582031 2.210938 -0.515625 2.421875 -0.515625 C 2.710938 -0.515625 3.125 -0.820312 3.65625 -1.4375 C 4.75 -2.726562 5.96875 -4.757812 7.3125 -7.53125 C 7.476562 -7.851562 7.78125 -8.015625 8.21875 -8.015625 L 9.46875 -8.015625 C 9.070312 -7.734375 8.753906 -7.378906 8.515625 -6.953125 C 8.285156 -6.523438 8.035156 -5.945312 7.765625 -5.21875 C 7.492188 -4.488281 7.148438 -3.515625 6.734375 -2.296875 C 6.328125 -1.085938 6.015625 -0.179688 5.796875 0.421875 C 7.253906 -0.015625 8.367188 -0.785156 9.140625 -1.890625 C 9.484375 -2.367188 9.972656 -3.222656 10.609375 -4.453125 C 10.722656 -4.671875 10.820312 -4.753906 10.90625 -4.703125 C 10.988281 -4.660156 11.03125 -4.597656 11.03125 -4.515625 C 11.03125 -4.441406 10.898438 -4.144531 10.640625 -3.625 C 10.390625 -3.101562 10.128906 -2.617188 9.859375 -2.171875 C 9.597656 -1.734375 9.257812 -1.28125 8.84375 -0.8125 C 8.425781 -0.34375 7.957031 0.0234375 7.4375 0.296875 C 6.925781 0.566406 6.242188 0.859375 5.390625 1.171875 C 4.203125 3.335938 3 4.9375 1.78125 5.96875 C 0.644531 6.894531 -0.578125 7.359375 -1.890625 7.359375 Z M -3.25 5.0625 C -3.414062 5.394531 -3.5 5.707031 -3.5 6 C -3.5 6.289062 -3.390625 6.507812 -3.171875 6.65625 C -2.953125 6.8125 -2.679688 6.890625 -2.359375 6.890625 C -1.460938 6.890625 -0.503906 6.425781 0.515625 5.5 C 1.546875 4.582031 2.453125 3.597656 3.234375 2.546875 L 3.75 1.671875 C 1.1875 2.335938 -0.429688 2.820312 -1.109375 3.125 C -2.097656 3.5625 -2.8125 4.207031 -3.25 5.0625 Z M -3.25 5.0625"/></g></g></g><g fill-opacity="1" fill="#000000"><g transform="translate(241.36269, 251.4765)"><g/></g></g><g fill-opacity="1" fill="#000000"><g transform="translate(247.396701, 251.4765)"><g/></g></g><g fill-opacity="1" fill="#000000"><g transform="translate(253.430711, 251.4765)"><g/></g></g><g fill-opacity="1" fill="#000000"><g transform="translate(259.472675, 251.4765)"><g><path d="M 9.875 -8.453125 C 9.875 -9.453125 9.351562 -9.953125 8.3125 -9.953125 C 8.1875 -9.953125 8.050781 -9.941406 7.90625 -9.921875 C 7.757812 -9.910156 7.664062 -9.929688 7.625 -9.984375 C 7.582031 -10.035156 7.59375 -10.09375 7.65625 -10.15625 C 7.789062 -10.34375 8.25 -10.4375 9.03125 -10.4375 C 9.820312 -10.4375 10.34375 -10.09375 10.59375 -9.40625 C 10.695312 -9.144531 10.75 -8.867188 10.75 -8.578125 C 10.75 -7.910156 10.503906 -7.148438 10.015625 -6.296875 C 9.171875 -4.890625 8.007812 -3.894531 6.53125 -3.3125 C 5.769531 -3 4.925781 -2.84375 4 -2.84375 C 3.082031 -2.84375 2.242188 -3.15625 1.484375 -3.78125 C 0.734375 -4.414062 0.242188 -5.304688 0.015625 -6.453125 C -0.0234375 -6.742188 -0.046875 -7.0625 -0.046875 -7.40625 C -0.046875 -8.34375 0.195312 -9.425781 0.6875 -10.65625 C 1.1875 -11.894531 2.019531 -13.082031 3.1875 -14.21875 C 5.382812 -16.382812 7.710938 -17.722656 10.171875 -18.234375 C 10.859375 -18.378906 11.457031 -18.453125 11.96875 -18.453125 C 12.476562 -18.453125 12.910156 -18.425781 13.265625 -18.375 C 14.234375 -18.238281 14.988281 -17.78125 15.53125 -17 C 15.96875 -16.394531 16.1875 -15.628906 16.1875 -14.703125 C 16.1875 -13.859375 16.09375 -13.148438 15.90625 -12.578125 C 15.71875 -12.015625 15.59375 -11.644531 15.53125 -11.46875 C 15.46875 -11.289062 15.351562 -11.015625 15.1875 -10.640625 C 15.03125 -10.273438 14.925781 -10.035156 14.875 -9.921875 C 14.832031 -9.816406 14.707031 -9.535156 14.5 -9.078125 C 13.851562 -7.671875 13.546875 -6.957031 13.578125 -6.9375 L 14.296875 -8.109375 C 15.242188 -9.566406 16.269531 -10.960938 17.375 -12.296875 C 19.425781 -14.785156 21.265625 -16.398438 22.890625 -17.140625 C 23.804688 -17.578125 24.601562 -17.796875 25.28125 -17.796875 C 25.96875 -17.796875 26.539062 -17.628906 27 -17.296875 C 27.457031 -16.960938 27.6875 -16.390625 27.6875 -15.578125 C 27.6875 -14.773438 27.429688 -13.796875 26.921875 -12.640625 C 26.410156 -11.484375 25.660156 -10.003906 24.671875 -8.203125 C 23.691406 -6.398438 22.859375 -4.757812 22.171875 -3.28125 C 21.484375 -1.8125 21.140625 -0.5 21.140625 0.65625 C 21.140625 1.0625 21.195312 1.425781 21.3125 1.75 C 21.53125 2.457031 21.945312 2.8125 22.5625 2.8125 C 22.90625 2.8125 23.257812 2.726562 23.625 2.5625 C 23.988281 2.394531 24.265625 2.3125 24.453125 2.3125 C 24.640625 2.3125 24.734375 2.410156 24.734375 2.609375 C 24.734375 2.804688 24.582031 2.988281 24.28125 3.15625 C 23.988281 3.320312 23.75 3.40625 23.5625 3.40625 C 21.082031 3.40625 19.84375 2.320312 19.84375 0.15625 C 19.84375 -0.632812 19.976562 -1.429688 20.25 -2.234375 C 20.519531 -3.046875 21.484375 -5.195312 23.140625 -8.6875 C 24.804688 -12.1875 25.710938 -14.394531 25.859375 -15.3125 C 25.878906 -15.445312 25.890625 -15.578125 25.890625 -15.703125 C 25.890625 -16.359375 25.507812 -16.6875 24.75 -16.6875 C 24.238281 -16.6875 23.660156 -16.515625 23.015625 -16.171875 C 20.578125 -15.003906 18.253906 -12.773438 16.046875 -9.484375 C 14.742188 -7.535156 13.257812 -4.78125 11.59375 -1.21875 C 10.988281 0.09375 10.671875 0.78125 10.640625 0.84375 C 10.421875 1.289062 9.984375 1.515625 9.328125 1.515625 C 8.941406 1.515625 8.734375 1.390625 8.703125 1.140625 C 8.691406 1.097656 8.691406 1.046875 8.703125 0.984375 C 9.453125 -0.117188 10.5 -2.15625 11.84375 -5.125 C 13.1875 -8.101562 14.101562 -10.695312 14.59375 -12.90625 C 14.75 -13.632812 14.828125 -14.28125 14.828125 -14.84375 C 14.828125 -15.414062 14.75 -15.90625 14.59375 -16.3125 C 14.269531 -17.132812 13.722656 -17.609375 12.953125 -17.734375 C 12.710938 -17.765625 12.382812 -17.78125 11.96875 -17.78125 C 11.550781 -17.78125 10.925781 -17.65625 10.09375 -17.40625 C 9.257812 -17.164062 8.320312 -16.722656 7.28125 -16.078125 C 4.9375 -14.617188 3.238281 -12.710938 2.1875 -10.359375 C 1.601562 -9.085938 1.3125 -7.914062 1.3125 -6.84375 C 1.3125 -6.300781 1.382812 -5.789062 1.53125 -5.3125 C 2.039062 -4.019531 2.941406 -3.34375 4.234375 -3.28125 C 5.828125 -3.28125 7.222656 -3.945312 8.421875 -5.28125 C 9.390625 -6.351562 9.875 -7.410156 9.875 -8.453125 Z M 9.875 -8.453125"/></g></g></g><g fill-opacity="1" fill="#000000"><g transform="translate(283.678593, 251.4765)"><g/></g></g><g fill-opacity="1" fill="#000000"><g transform="translate(289.712603, 251.4765)"><g><path d="M 4.515625 -9.0625 C 4.296875 -8.875 4.054688 -8.78125 3.796875 -8.78125 C 3.535156 -8.78125 3.328125 -8.875 3.171875 -9.0625 C 3.015625 -9.25 2.953125 -9.472656 2.984375 -9.734375 C 3.023438 -10.003906 3.15625 -10.226562 3.375 -10.40625 C 3.59375 -10.59375 3.832031 -10.6875 4.09375 -10.6875 C 4.363281 -10.6875 4.578125 -10.59375 4.734375 -10.40625 C 4.898438 -10.226562 4.957031 -10.003906 4.90625 -9.734375 C 4.863281 -9.472656 4.734375 -9.25 4.515625 -9.0625 Z M 2.234375 -0.515625 C 2.523438 -0.515625 2.835938 -0.660156 3.171875 -0.953125 C 3.742188 -1.523438 4.472656 -2.695312 5.359375 -4.46875 C 5.460938 -4.707031 5.570312 -4.78125 5.6875 -4.6875 C 5.71875 -4.65625 5.734375 -4.601562 5.734375 -4.53125 C 5.734375 -4.457031 5.671875 -4.285156 5.546875 -4.015625 C 5.421875 -3.742188 5.304688 -3.5 5.203125 -3.28125 C 5.109375 -3.0625 4.914062 -2.707031 4.625 -2.21875 C 4.332031 -1.726562 4.070312 -1.351562 3.84375 -1.09375 C 3.207031 -0.363281 2.601562 0 2.03125 0 C 1.46875 0 1.0625 -0.171875 0.8125 -0.515625 C 0.5625 -0.859375 0.4375 -1.238281 0.4375 -1.65625 C 0.4375 -2.070312 0.539062 -2.53125 0.75 -3.03125 L 2.234375 -6.828125 C 2.265625 -6.921875 2.28125 -7.046875 2.28125 -7.203125 C 2.28125 -7.359375 2.1875 -7.554688 2 -7.796875 L 3.28125 -7.828125 C 3.644531 -7.828125 3.851562 -7.757812 3.90625 -7.625 C 3.96875 -7.5 3.925781 -7.296875 3.78125 -7.015625 L 1.90625 -2.65625 C 1.644531 -2.082031 1.515625 -1.59375 1.515625 -1.1875 C 1.515625 -0.738281 1.753906 -0.515625 2.234375 -0.515625 Z M 2.234375 -0.515625"/></g></g></g><g fill-opacity="1" fill="#000000"><g transform="translate(293.766345, 251.4765)"><g/></g></g><g fill-opacity="1" fill="#000000"><g transform="translate(299.800355, 251.4765)"><g><path d="M 5.609375 -5.359375 C 6.160156 -6.015625 6.4375 -6.566406 6.4375 -7.015625 C 6.4375 -7.460938 6.25 -7.6875 5.875 -7.6875 C 5.144531 -7.6875 4.3125 -7.019531 3.375 -5.6875 C 3.082031 -5.269531 2.796875 -4.71875 2.515625 -4.03125 C 2.234375 -3.34375 2.09375 -2.722656 2.09375 -2.171875 C 2.09375 -1.617188 2.203125 -1.171875 2.421875 -0.828125 C 2.648438 -0.492188 3 -0.328125 3.46875 -0.328125 C 3.945312 -0.328125 4.390625 -0.4375 4.796875 -0.65625 C 5.203125 -0.882812 5.585938 -1.242188 5.953125 -1.734375 C 6.316406 -2.222656 6.59375 -2.628906 6.78125 -2.953125 C 6.96875 -3.285156 7.222656 -3.773438 7.546875 -4.421875 C 7.660156 -4.640625 7.753906 -4.726562 7.828125 -4.6875 C 7.898438 -4.65625 7.9375 -4.601562 7.9375 -4.53125 C 7.9375 -4.457031 7.832031 -4.195312 7.625 -3.75 C 7.414062 -3.3125 7.207031 -2.898438 7 -2.515625 C 6.789062 -2.128906 6.492188 -1.695312 6.109375 -1.21875 C 5.410156 -0.34375 4.453125 0.09375 3.234375 0.09375 C 2.367188 0.09375 1.742188 -0.117188 1.359375 -0.546875 C 0.984375 -0.972656 0.796875 -1.46875 0.796875 -2.03125 C 0.796875 -2.707031 0.960938 -3.445312 1.296875 -4.25 C 1.628906 -5.0625 2.015625 -5.765625 2.453125 -6.359375 C 3.347656 -7.585938 4.382812 -8.203125 5.5625 -8.203125 C 6.144531 -8.203125 6.5625 -8.066406 6.8125 -7.796875 C 7.070312 -7.523438 7.203125 -7.207031 7.203125 -6.84375 C 7.203125 -6.320312 6.984375 -5.875 6.546875 -5.5 C 6.328125 -5.289062 6.144531 -5.1875 6 -5.1875 C 5.851562 -5.1875 5.722656 -5.242188 5.609375 -5.359375 Z M 5.609375 -5.359375"/></g></g></g><g fill-opacity="1" fill="#000000"><g transform="translate(305.85765, 251.4765)"><g/></g></g><g fill-opacity="1" fill="#000000"><g transform="translate(311.89166, 251.4765)"><g><path d="M 5.5625 -8.15625 C 6.695312 -8.15625 7.265625 -7.441406 7.265625 -6.015625 C 7.265625 -5.359375 7.09375 -4.65625 6.75 -3.90625 C 6.320312 -2.90625 5.671875 -1.992188 4.796875 -1.171875 C 5.003906 -0.773438 5.367188 -0.578125 5.890625 -0.578125 C 6.304688 -0.578125 6.703125 -0.789062 7.078125 -1.21875 C 7.546875 -1.695312 7.878906 -2.117188 8.078125 -2.484375 C 8.285156 -2.847656 8.4375 -3.113281 8.53125 -3.28125 C 8.625 -3.457031 8.742188 -3.703125 8.890625 -4.015625 C 9.035156 -4.335938 9.125 -4.53125 9.15625 -4.59375 C 9.1875 -4.664062 9.238281 -4.703125 9.3125 -4.703125 C 9.46875 -4.722656 9.546875 -4.671875 9.546875 -4.546875 C 9.546875 -4.492188 9.53125 -4.4375 9.5 -4.375 L 9.359375 -4.046875 C 9.265625 -3.835938 9.191406 -3.6875 9.140625 -3.59375 C 9.097656 -3.5 9.019531 -3.328125 8.90625 -3.078125 C 8.789062 -2.835938 8.691406 -2.648438 8.609375 -2.515625 C 8.523438 -2.378906 8.40625 -2.191406 8.25 -1.953125 C 8.101562 -1.722656 7.972656 -1.535156 7.859375 -1.390625 C 7.742188 -1.253906 7.597656 -1.097656 7.421875 -0.921875 C 7.253906 -0.753906 7.09375 -0.625 6.9375 -0.53125 C 6.550781 -0.300781 6.1875 -0.1875 5.84375 -0.1875 C 5.207031 -0.1875 4.710938 -0.390625 4.359375 -0.796875 C 3.640625 -0.265625 2.976562 0 2.375 0 C 1.238281 0 0.671875 -0.710938 0.671875 -2.140625 C 0.671875 -2.796875 0.84375 -3.492188 1.1875 -4.234375 C 1.65625 -5.328125 2.3125 -6.253906 3.15625 -7.015625 C 4 -7.773438 4.800781 -8.15625 5.5625 -8.15625 Z M 5.828125 -7.4375 C 5.398438 -7.4375 4.898438 -7.15625 4.328125 -6.59375 C 3.753906 -6.03125 3.242188 -5.269531 2.796875 -4.3125 C 2.253906 -3.1875 1.984375 -2.265625 1.984375 -1.546875 C 1.984375 -0.835938 2.253906 -0.484375 2.796875 -0.484375 C 3.179688 -0.484375 3.613281 -0.695312 4.09375 -1.125 C 3.851562 -1.476562 3.734375 -1.859375 3.734375 -2.265625 C 3.765625 -2.929688 4.035156 -3.265625 4.546875 -3.265625 C 4.742188 -3.265625 4.90625 -3.191406 5.03125 -3.046875 C 5.164062 -2.910156 5.234375 -2.785156 5.234375 -2.671875 C 5.234375 -2.554688 5.21875 -2.4375 5.1875 -2.3125 C 5.457031 -2.695312 5.765625 -3.242188 6.109375 -3.953125 C 6.492188 -4.753906 6.6875 -5.535156 6.6875 -6.296875 C 6.6875 -7.054688 6.398438 -7.4375 5.828125 -7.4375 Z M 5.828125 -7.4375"/></g></g></g><g fill-opacity="1" fill="#000000"><g transform="translate(319.696268, 251.4765)"><g/></g></g><g fill-opacity="1" fill="#000000"><g transform="translate(325.730279, 251.4765)"><g><path d="M 2.609375 -4.5 C 2.597656 -4.4375 2.53125 -4.222656 2.40625 -3.859375 C 2.28125 -3.492188 2.171875 -3.144531 2.078125 -2.8125 C 1.992188 -2.476562 1.953125 -2.140625 1.953125 -1.796875 C 1.953125 -1.460938 2.03125 -1.148438 2.1875 -0.859375 C 2.34375 -0.578125 2.59375 -0.4375 2.9375 -0.4375 C 3.5 -0.4375 4.039062 -0.8125 4.5625 -1.5625 C 5.09375 -2.320312 5.65625 -3.285156 6.25 -4.453125 C 6.375 -4.671875 6.488281 -4.753906 6.59375 -4.703125 C 6.664062 -4.640625 6.675781 -4.554688 6.625 -4.453125 C 6.582031 -4.359375 6.488281 -4.144531 6.34375 -3.8125 C 6.195312 -3.476562 6.085938 -3.242188 6.015625 -3.109375 C 5.953125 -2.972656 5.828125 -2.738281 5.640625 -2.40625 C 5.460938 -2.070312 5.304688 -1.820312 5.171875 -1.65625 C 5.046875 -1.5 4.867188 -1.289062 4.640625 -1.03125 C 4.421875 -0.78125 4.207031 -0.59375 4 -0.46875 C 3.457031 -0.125 2.945312 0.046875 2.46875 0.046875 C 1.988281 0.046875 1.613281 -0.0546875 1.34375 -0.265625 C 1.082031 -0.472656 0.925781 -0.695312 0.875 -0.9375 C 0.820312 -1.175781 0.796875 -1.390625 0.796875 -1.578125 C 0.796875 -1.765625 0.800781 -2.007812 0.8125 -2.3125 C 0.863281 -2.800781 0.960938 -3.28125 1.109375 -3.75 C 1.253906 -4.21875 1.332031 -4.484375 1.34375 -4.546875 C 1.707031 -5.828125 2.21875 -7.226562 2.875 -8.75 C 3.539062 -10.28125 4.097656 -11.425781 4.546875 -12.1875 C 5.003906 -12.957031 5.367188 -13.484375 5.640625 -13.765625 C 6.171875 -14.328125 6.691406 -14.609375 7.203125 -14.609375 C 7.554688 -14.609375 7.796875 -14.351562 7.921875 -13.84375 C 7.929688 -13.75 7.9375 -13.628906 7.9375 -13.484375 C 7.9375 -12.960938 7.753906 -12.296875 7.390625 -11.484375 C 6.046875 -8.515625 4.453125 -6.1875 2.609375 -4.5 Z M 2.796875 -5.234375 C 3.585938 -6.046875 4.367188 -7.066406 5.140625 -8.296875 C 5.921875 -9.523438 6.492188 -10.566406 6.859375 -11.421875 C 7.222656 -12.285156 7.40625 -12.875 7.40625 -13.1875 C 7.40625 -13.5 7.351562 -13.65625 7.25 -13.65625 C 7.09375 -13.65625 6.796875 -13.347656 6.359375 -12.734375 C 5.921875 -12.117188 5.332031 -11.015625 4.59375 -9.421875 C 3.863281 -7.828125 3.265625 -6.429688 2.796875 -5.234375 Z M 2.796875 -5.234375"/></g></g></g><g fill-opacity="1" fill="#000000"><g transform="translate(330.669319, 251.4765)"><g/></g></g><g fill-opacity="1" fill="#000000"><g transform="translate(336.703329, 251.4765)"><g><path d="M 8.40625 -6.3125 C 8.125 -6.03125 7.726562 -5.394531 7.21875 -4.40625 C 6.707031 -3.425781 6.398438 -2.691406 6.296875 -2.203125 C 6.203125 -1.710938 6.15625 -1.316406 6.15625 -1.015625 C 6.15625 -0.710938 6.269531 -0.5625 6.5 -0.5625 C 6.789062 -0.5625 7.15625 -0.832031 7.59375 -1.375 C 8.226562 -2.164062 8.859375 -3.195312 9.484375 -4.46875 C 9.546875 -4.613281 9.613281 -4.691406 9.6875 -4.703125 C 9.8125 -4.753906 9.875 -4.707031 9.875 -4.5625 C 9.875 -4.488281 9.851562 -4.394531 9.8125 -4.28125 C 8.382812 -1.394531 7.179688 0.046875 6.203125 0.046875 C 5.742188 0.046875 5.378906 -0.171875 5.109375 -0.609375 C 4.960938 -0.835938 4.890625 -1.144531 4.890625 -1.53125 C 4.890625 -1.925781 4.96875 -2.398438 5.125 -2.953125 C 3.882812 -0.953125 2.8125 0.046875 1.90625 0.046875 C 1.65625 0.046875 1.429688 -0.03125 1.234375 -0.1875 C 0.765625 -0.507812 0.53125 -1.066406 0.53125 -1.859375 C 0.53125 -3.378906 1.191406 -4.925781 2.515625 -6.5 C 3.265625 -7.363281 4.179688 -7.929688 5.265625 -8.203125 C 5.554688 -8.273438 5.835938 -8.3125 6.109375 -8.3125 C 6.816406 -8.3125 7.421875 -8.066406 7.921875 -7.578125 C 8.078125 -7.398438 8.125 -7.234375 8.0625 -7.078125 C 8 -6.921875 7.867188 -6.859375 7.671875 -6.890625 C 7.492188 -7.453125 7.117188 -7.734375 6.546875 -7.734375 C 5.878906 -7.734375 5.054688 -7.207031 4.078125 -6.15625 C 3.515625 -5.53125 2.992188 -4.796875 2.515625 -3.953125 C 1.910156 -2.953125 1.609375 -2.144531 1.609375 -1.53125 C 1.609375 -0.925781 1.800781 -0.625 2.1875 -0.625 C 3.125 -0.625 4.34375 -2.054688 5.84375 -4.921875 C 6.144531 -5.492188 6.394531 -5.882812 6.59375 -6.09375 C 6.789062 -6.300781 7.046875 -6.40625 7.359375 -6.40625 C 7.421875 -6.40625 7.578125 -6.378906 7.828125 -6.328125 C 8.085938 -6.285156 8.28125 -6.28125 8.40625 -6.3125 Z M 8.40625 -6.3125"/></g></g></g><g fill-opacity="1" fill="#000000"><g transform="translate(27.984094, 126.343224)"><g><path d="M 5.828125 -35.828125 L 9.625 -35.828125 L 9.625 -3.28125 L 29.6875 -3.28125 L 29.6875 0 L 5.828125 0 Z M 5.828125 -35.828125"/></g></g></g><g fill-opacity="1" fill="#000000"><g transform="translate(58.126645, 126.343224)"><g><path d="M 29.328125 -26.921875 L 29.328125 0 L 25.84375 0 L 25.84375 -4.90625 C 24.894531 -3.269531 23.582031 -2 21.90625 -1.09375 C 20.238281 -0.195312 18.328125 0.25 16.171875 0.25 C 12.660156 0.25 9.890625 -0.726562 7.859375 -2.6875 C 5.828125 -4.644531 4.8125 -7.519531 4.8125 -11.3125 L 4.8125 -26.921875 L 8.453125 -26.921875 L 8.453125 -11.671875 C 8.453125 -8.835938 9.148438 -6.6875 10.546875 -5.21875 C 11.941406 -3.75 13.9375 -3.015625 16.53125 -3.015625 C 19.363281 -3.015625 21.597656 -3.875 23.234375 -5.59375 C 24.878906 -7.320312 25.703125 -9.722656 25.703125 -12.796875 L 25.703125 -26.921875 Z M 29.328125 -26.921875"/></g></g></g><g fill-opacity="1" fill="#000000"><g transform="translate(92.567963, 126.343224)"><g><path d="M 22.21875 0 L 13.671875 -11.265625 L 5.0625 0 L 0.96875 0 L 11.625 -13.828125 L 1.484375 -26.921875 L 5.578125 -26.921875 L 13.671875 -16.375 L 21.75 -26.921875 L 25.75 -26.921875 L 15.609375 -13.828125 L 26.359375 0 Z M 22.21875 0"/></g></g></g><g fill-opacity="1" fill="#000000"><g transform="translate(119.895836, 126.343224)"><g><path d="M 29.328125 -26.921875 L 29.328125 0 L 25.84375 0 L 25.84375 -4.90625 C 24.894531 -3.269531 23.582031 -2 21.90625 -1.09375 C 20.238281 -0.195312 18.328125 0.25 16.171875 0.25 C 12.660156 0.25 9.890625 -0.726562 7.859375 -2.6875 C 5.828125 -4.644531 4.8125 -7.519531 4.8125 -11.3125 L 4.8125 -26.921875 L 8.453125 -26.921875 L 8.453125 -11.671875 C 8.453125 -8.835938 9.148438 -6.6875 10.546875 -5.21875 C 11.941406 -3.75 13.9375 -3.015625 16.53125 -3.015625 C 19.363281 -3.015625 21.597656 -3.875 23.234375 -5.59375 C 24.878906 -7.320312 25.703125 -9.722656 25.703125 -12.796875 L 25.703125 -26.921875 Z M 29.328125 -26.921875"/></g></g></g><g fill-opacity="1" fill="#000000"><g transform="translate(154.337154, 126.343224)"><g><path d="M 8.546875 -21.65625 C 9.398438 -23.457031 10.671875 -24.816406 12.359375 -25.734375 C 14.046875 -26.660156 16.132812 -27.125 18.625 -27.125 L 18.625 -23.59375 L 17.765625 -23.65625 C 14.929688 -23.65625 12.710938 -22.78125 11.109375 -21.03125 C 9.503906 -19.289062 8.703125 -16.851562 8.703125 -13.71875 L 8.703125 0 L 5.0625 0 L 5.0625 -26.921875 L 8.546875 -26.921875 Z M 8.546875 -21.65625"/></g></g></g><g fill-opacity="1" fill="#000000"><g transform="translate(174.858646, 126.343224)"><g><path d="M 27.6875 -26.921875 L 14.234375 3.21875 C 13.140625 5.75 11.875 7.539062 10.4375 8.59375 C 9.007812 9.65625 7.285156 10.1875 5.265625 10.1875 C 3.972656 10.1875 2.765625 9.976562 1.640625 9.5625 C 0.515625 9.15625 -0.457031 8.546875 -1.28125 7.734375 L 0.40625 5.015625 C 1.769531 6.378906 3.410156 7.0625 5.328125 7.0625 C 6.554688 7.0625 7.601562 6.71875 8.46875 6.03125 C 9.34375 5.351562 10.15625 4.195312 10.90625 2.5625 L 12.078125 -0.046875 L 0.046875 -26.921875 L 3.84375 -26.921875 L 13.96875 -4.046875 L 24.109375 -26.921875 Z M 27.6875 -26.921875"/></g></g></g><g fill-opacity="1" fill="#000000"><g transform="translate(27.984094, 197.606887)"><g/></g></g><g fill-opacity="1" fill="#000000"><g transform="translate(41.392152, 197.606887)"><g/></g></g><g fill-opacity="1" fill="#000000"><g transform="translate(54.80021, 197.606887)"><g/></g></g><g fill-opacity="1" fill="#000000"><g transform="translate(68.208268, 197.606887)"><g/></g></g><g fill-opacity="1" fill="#000000"><g transform="translate(81.616326, 197.606887)"><g/></g></g><g fill-opacity="1" fill="#000000"><g transform="translate(95.024384, 197.606887)"><g/></g></g><g fill-opacity="1" fill="#000000"><g transform="translate(108.4369, 197.606887)"><g><path d="M 55.03125 -35.828125 L 42.953125 0 L 38.953125 0 L 28.453125 -30.5625 L 17.921875 0 L 13.96875 0 L 1.890625 -35.828125 L 5.78125 -35.828125 L 16.125 -5.015625 L 26.828125 -35.828125 L 30.359375 -35.828125 L 40.90625 -4.859375 L 51.390625 -35.828125 Z M 55.03125 -35.828125"/></g></g></g><g fill-opacity="1" fill="#000000"><g transform="translate(165.29322, 197.606887)"><g><path d="M 28.515625 -12.34375 L 5.984375 -12.34375 C 6.191406 -9.539062 7.265625 -7.273438 9.203125 -5.546875 C 11.148438 -3.828125 13.609375 -2.96875 16.578125 -2.96875 C 18.253906 -2.96875 19.789062 -3.265625 21.1875 -3.859375 C 22.59375 -4.460938 23.804688 -5.34375 24.828125 -6.5 L 26.875 -4.140625 C 25.675781 -2.710938 24.179688 -1.625 22.390625 -0.875 C 20.597656 -0.125 18.628906 0.25 16.484375 0.25 C 13.722656 0.25 11.273438 -0.335938 9.140625 -1.515625 C 7.003906 -2.691406 5.335938 -4.316406 4.140625 -6.390625 C 2.953125 -8.472656 2.359375 -10.832031 2.359375 -13.46875 C 2.359375 -16.09375 2.925781 -18.445312 4.0625 -20.53125 C 5.207031 -22.613281 6.773438 -24.234375 8.765625 -25.390625 C 10.765625 -26.546875 13.015625 -27.125 15.515625 -27.125 C 18.003906 -27.125 20.238281 -26.546875 22.21875 -25.390625 C 24.195312 -24.234375 25.75 -22.617188 26.875 -20.546875 C 28 -18.484375 28.5625 -16.125 28.5625 -13.46875 Z M 15.515625 -24 C 12.921875 -24 10.742188 -23.171875 8.984375 -21.515625 C 7.222656 -19.867188 6.222656 -17.710938 5.984375 -15.046875 L 25.078125 -15.046875 C 24.835938 -17.710938 23.835938 -19.867188 22.078125 -21.515625 C 20.328125 -23.171875 18.140625 -24 15.515625 -24 Z M 15.515625 -24"/></g></g></g><g fill-opacity="1" fill="#000000"><g transform="translate(196.203408, 197.606887)"><g><path d="M 5.0625 -37.984375 L 8.703125 -37.984375 L 8.703125 0 L 5.0625 0 Z M 5.0625 -37.984375"/></g></g></g><g fill-opacity="1" fill="#000000"><g transform="translate(209.969703, 197.606887)"><g><path d="M 5.0625 -37.984375 L 8.703125 -37.984375 L 8.703125 0 L 5.0625 0 Z M 5.0625 -37.984375"/></g></g></g><g fill-opacity="1" fill="#000000"><g transform="translate(223.735997, 197.606887)"><g><path d="M 18.78125 -27.125 C 22.164062 -27.125 24.851562 -26.144531 26.84375 -24.1875 C 28.84375 -22.226562 29.84375 -19.367188 29.84375 -15.609375 L 29.84375 0 L 26.203125 0 L 26.203125 -15.25 C 26.203125 -18.050781 25.503906 -20.1875 24.109375 -21.65625 C 22.710938 -23.125 20.71875 -23.859375 18.125 -23.859375 C 15.21875 -23.859375 12.921875 -22.992188 11.234375 -21.265625 C 9.546875 -19.546875 8.703125 -17.164062 8.703125 -14.125 L 8.703125 0 L 5.0625 0 L 5.0625 -26.921875 L 8.546875 -26.921875 L 8.546875 -21.953125 C 9.535156 -23.597656 10.910156 -24.867188 12.671875 -25.765625 C 14.429688 -26.671875 16.46875 -27.125 18.78125 -27.125 Z M 18.78125 -27.125"/></g></g></g><g fill-opacity="1" fill="#000000"><g transform="translate(258.38202, 197.606887)"><g><path d="M 28.515625 -12.34375 L 5.984375 -12.34375 C 6.191406 -9.539062 7.265625 -7.273438 9.203125 -5.546875 C 11.148438 -3.828125 13.609375 -2.96875 16.578125 -2.96875 C 18.253906 -2.96875 19.789062 -3.265625 21.1875 -3.859375 C 22.59375 -4.460938 23.804688 -5.34375 24.828125 -6.5 L 26.875 -4.140625 C 25.675781 -2.710938 24.179688 -1.625 22.390625 -0.875 C 20.597656 -0.125 18.628906 0.25 16.484375 0.25 C 13.722656 0.25 11.273438 -0.335938 9.140625 -1.515625 C 7.003906 -2.691406 5.335938 -4.316406 4.140625 -6.390625 C 2.953125 -8.472656 2.359375 -10.832031 2.359375 -13.46875 C 2.359375 -16.09375 2.925781 -18.445312 4.0625 -20.53125 C 5.207031 -22.613281 6.773438 -24.234375 8.765625 -25.390625 C 10.765625 -26.546875 13.015625 -27.125 15.515625 -27.125 C 18.003906 -27.125 20.238281 -26.546875 22.21875 -25.390625 C 24.195312 -24.234375 25.75 -22.617188 26.875 -20.546875 C 28 -18.484375 28.5625 -16.125 28.5625 -13.46875 Z M 15.515625 -24 C 12.921875 -24 10.742188 -23.171875 8.984375 -21.515625 C 7.222656 -19.867188 6.222656 -17.710938 5.984375 -15.046875 L 25.078125 -15.046875 C 24.835938 -17.710938 23.835938 -19.867188 22.078125 -21.515625 C 20.328125 -23.171875 18.140625 -24 15.515625 -24 Z M 15.515625 -24"/></g></g></g><g fill-opacity="1" fill="#000000"><g transform="translate(289.292209, 197.606887)"><g><path d="M 12.28125 0.25 C 10.101562 0.25 8.015625 -0.0625 6.015625 -0.6875 C 4.015625 -1.320312 2.453125 -2.117188 1.328125 -3.078125 L 2.96875 -5.9375 C 4.09375 -5.050781 5.507812 -4.328125 7.21875 -3.765625 C 8.925781 -3.203125 10.703125 -2.921875 12.546875 -2.921875 C 14.992188 -2.921875 16.804688 -3.300781 17.984375 -4.0625 C 19.171875 -4.832031 19.765625 -5.914062 19.765625 -7.3125 C 19.765625 -8.300781 19.4375 -9.078125 18.78125 -9.640625 C 18.132812 -10.210938 17.316406 -10.640625 16.328125 -10.921875 C 15.335938 -11.210938 14.023438 -11.492188 12.390625 -11.765625 C 10.203125 -12.179688 8.441406 -12.601562 7.109375 -13.03125 C 5.785156 -13.457031 4.648438 -14.179688 3.703125 -15.203125 C 2.765625 -16.222656 2.296875 -17.640625 2.296875 -19.453125 C 2.296875 -21.703125 3.234375 -23.539062 5.109375 -24.96875 C 6.992188 -26.40625 9.609375 -27.125 12.953125 -27.125 C 14.691406 -27.125 16.429688 -26.894531 18.171875 -26.4375 C 19.910156 -25.976562 21.34375 -25.375 22.46875 -24.625 L 20.890625 -21.703125 C 18.671875 -23.234375 16.023438 -24 12.953125 -24 C 10.628906 -24 8.878906 -23.585938 7.703125 -22.765625 C 6.523438 -21.953125 5.9375 -20.878906 5.9375 -19.546875 C 5.9375 -18.523438 6.269531 -17.707031 6.9375 -17.09375 C 7.601562 -16.476562 8.429688 -16.023438 9.421875 -15.734375 C 10.410156 -15.453125 11.773438 -15.15625 13.515625 -14.84375 C 15.660156 -14.4375 17.378906 -14.023438 18.671875 -13.609375 C 19.972656 -13.203125 21.082031 -12.503906 22 -11.515625 C 22.925781 -10.523438 23.390625 -9.160156 23.390625 -7.421875 C 23.390625 -5.066406 22.40625 -3.195312 20.4375 -1.8125 C 18.476562 -0.4375 15.757812 0.25 12.28125 0.25 Z M 12.28125 0.25"/></g></g></g><g fill-opacity="1" fill="#000000"><g transform="translate(314.317172, 197.606887)"><g><path d="M 12.28125 0.25 C 10.101562 0.25 8.015625 -0.0625 6.015625 -0.6875 C 4.015625 -1.320312 2.453125 -2.117188 1.328125 -3.078125 L 2.96875 -5.9375 C 4.09375 -5.050781 5.507812 -4.328125 7.21875 -3.765625 C 8.925781 -3.203125 10.703125 -2.921875 12.546875 -2.921875 C 14.992188 -2.921875 16.804688 -3.300781 17.984375 -4.0625 C 19.171875 -4.832031 19.765625 -5.914062 19.765625 -7.3125 C 19.765625 -8.300781 19.4375 -9.078125 18.78125 -9.640625 C 18.132812 -10.210938 17.316406 -10.640625 16.328125 -10.921875 C 15.335938 -11.210938 14.023438 -11.492188 12.390625 -11.765625 C 10.203125 -12.179688 8.441406 -12.601562 7.109375 -13.03125 C 5.785156 -13.457031 4.648438 -14.179688 3.703125 -15.203125 C 2.765625 -16.222656 2.296875 -17.640625 2.296875 -19.453125 C 2.296875 -21.703125 3.234375 -23.539062 5.109375 -24.96875 C 6.992188 -26.40625 9.609375 -27.125 12.953125 -27.125 C 14.691406 -27.125 16.429688 -26.894531 18.171875 -26.4375 C 19.910156 -25.976562 21.34375 -25.375 22.46875 -24.625 L 20.890625 -21.703125 C 18.671875 -23.234375 16.023438 -24 12.953125 -24 C 10.628906 -24 8.878906 -23.585938 7.703125 -22.765625 C 6.523438 -21.953125 5.9375 -20.878906 5.9375 -19.546875 C 5.9375 -18.523438 6.269531 -17.707031 6.9375 -17.09375 C 7.601562 -16.476562 8.429688 -16.023438 9.421875 -15.734375 C 10.410156 -15.453125 11.773438 -15.15625 13.515625 -14.84375 C 15.660156 -14.4375 17.378906 -14.023438 18.671875 -13.609375 C 19.972656 -13.203125 21.082031 -12.503906 22 -11.515625 C 22.925781 -10.523438 23.390625 -9.160156 23.390625 -7.421875 C 23.390625 -5.066406 22.40625 -3.195312 20.4375 -1.8125 C 18.476562 -0.4375 15.757812 0.25 12.28125 0.25 Z M 12.28125 0.25"/></g></g></g></svg>